<?xml version="1.0" encoding="UTF-8"?>
<svg width="96px" height="36px" viewBox="0 0 96 36" version="1.1" xmlns="http://www.w3.org/2000/svg" xmlns:xlink="http://www.w3.org/1999/xlink">
    <!-- Generator: Sketch 54.1 (76490) - https://sketchapp.com -->
    <title>Group 6</title>
    <desc>Created with Sketch.</desc>
    <g id="Page-1" stroke="none" stroke-width="1" fill="none" fill-rule="evenodd">
        <g id="Group-6">
            <rect id="Rectangle" fill="#FFFFFF" x="0" y="0" width="95.7073171" height="36" rx="6"></rect>
            <path d="M21.5076338,14.2255306 L17.7308838,25.2273678 L14.3441242,25.2273678 L10.5365854,14.2255306 L13.7488755,14.2255306 L16.037504,22.5795375 L16.0990814,22.5795375 L18.3774469,14.2255306 L21.5076338,14.2255306 Z M26.4050934,23.2363636 C27.7084827,23.2363636 28.7860881,22.3845423 28.7860881,21.194045 L28.7860881,20.3935382 L26.4666709,20.5372189 C25.3480139,20.6193221 24.7117137,21.1222046 24.7117137,21.9021856 C24.7117137,22.7232182 25.3890656,23.2363636 26.4050934,23.2363636 Z M25.4198543,25.4018372 C23.3262211,25.4018372 21.7354704,24.0471334 21.7354704,22.0663921 C21.7354704,20.0651251 23.2749066,18.9054165 26.015103,18.74121 L28.7860881,18.5770035 L28.7860881,17.848337 C28.7860881,16.8220462 28.0676845,16.2267976 26.9387647,16.2267976 C25.8201077,16.2267976 25.1119671,16.7809946 24.9682864,17.5917643 L22.22809,17.5917643 C22.3409819,15.4570795 24.1575166,13.9894837 27.0721825,13.9894837 C29.8944821,13.9894837 31.7315426,15.4468166 31.7315426,17.6636047 L31.7315426,25.2273678 L28.8374026,25.2273678 L28.8374026,23.5442509 L28.7758252,23.5442509 C28.1600507,24.7142224 26.7950839,25.4018372 25.4198543,25.4018372 Z M33.5296041,25.2273678 L33.5296041,14.2255306 L36.4237441,14.2255306 L36.4237441,16.2062718 L36.4853215,16.2062718 C36.875312,14.8105163 37.8092366,14.0510611 39.102363,14.0510611 C39.4513019,14.0510611 39.7489262,14.1023757 39.9541844,14.1639531 L39.9541844,16.8015204 C39.7078746,16.6988914 39.2973583,16.627051 38.8663161,16.627051 C37.3884574,16.627051 36.5263731,17.5301869 36.5263731,19.079886 L36.5263731,25.2273678 L33.5296041,25.2273678 Z M41.0954197,25.2273678 L41.0954197,14.2255306 L44.0921888,14.2255306 L44.0921888,25.2273678 L41.0954197,25.2273678 Z M42.5835414,12.7374089 C41.7111942,12.7374089 41.0235794,12.0395312 41.0235794,11.1979728 C41.0235794,10.3461514 41.7111942,9.65853659 42.5835414,9.65853659 C43.4558885,9.65853659 44.1435033,10.3461514 44.1435033,11.1979728 C44.1435033,12.0395312 43.4558885,12.7374089 42.5835414,12.7374089 Z M50.2006715,23.2363636 C51.5040608,23.2363636 52.5816662,22.3845423 52.5816662,21.194045 L52.5816662,20.3935382 L50.262249,20.5372189 C49.143592,20.6193221 48.5072918,21.1222046 48.5072918,21.9021856 C48.5072918,22.7232182 49.1846437,23.2363636 50.2006715,23.2363636 Z M49.2154324,25.4018372 C47.1217992,25.4018372 45.5310485,24.0471334 45.5310485,22.0663921 C45.5310485,20.0651251 47.0704847,18.9054165 49.810681,18.74121 L52.5816662,18.5770035 L52.5816662,17.848337 C52.5816662,16.8220462 51.8632626,16.2267976 50.7343427,16.2267976 C49.6156858,16.2267976 48.9075452,16.7809946 48.7638644,17.5917643 L46.0236681,17.5917643 C46.13656,15.4570795 47.9530947,13.9894837 50.8677606,13.9894837 C53.6900602,13.9894837 55.5271207,15.4468166 55.5271207,17.6636047 L55.5271207,25.2273678 L52.6329807,25.2273678 L52.6329807,23.5442509 L52.5714033,23.5442509 C51.9556288,24.7142224 50.590662,25.4018372 49.2154324,25.4018372 Z M63.8626544,25.4018372 C62.2513779,25.4018372 61.019829,24.6218562 60.4143174,23.3389927 L60.35274,23.3389927 L60.35274,25.2273678 L57.3970225,25.2273678 L57.3970225,10.4179918 L60.3937916,10.4179918 L60.3937916,16.1344314 L60.455369,16.1344314 C61.0608806,14.8310421 62.2821666,14.0510611 63.8523915,14.0510611 C66.6233766,14.0510611 68.3270193,16.1754831 68.3270193,19.7264492 C68.3270193,23.2671524 66.6336396,25.4018372 63.8626544,25.4018372 Z M62.8261008,16.4525816 C61.3790307,16.4525816 60.3835287,17.7559709 60.3835287,19.7264492 C60.3835287,21.7174533 61.3687678,22.9900538 62.8261008,22.9900538 C64.3244853,22.9900538 65.2584099,21.7379791 65.2584099,19.7264492 C65.2584099,17.7251821 64.3142224,16.4525816 62.8261008,16.4525816 Z M69.8171936,25.2273678 L69.8171936,10.4179918 L72.8139627,10.4179918 L72.8139627,25.2273678 L69.8171936,25.2273678 Z M79.6408489,16.2062718 C78.3271967,16.2062718 77.3830092,17.2017738 77.2803801,18.5770035 L81.9500032,18.5770035 C81.8884258,17.1709851 80.975027,16.2062718 79.6408489,16.2062718 Z M81.9910548,21.861134 L84.7415141,21.861134 C84.4131011,24.0163446 82.4426228,25.4634146 79.7229522,25.4634146 C76.3361926,25.4634146 74.3041369,23.2979411 74.3041369,19.7777637 C74.3041369,16.2678492 76.3567184,13.9894837 79.6100602,13.9894837 C82.8120875,13.9894837 84.8338803,16.1549572 84.8338803,19.5006652 L84.8338803,20.414064 L77.2495914,20.414064 L77.2495914,20.5987963 C77.2495914,22.1690212 78.2450935,23.2466265 79.7742667,23.2466265 C80.8723979,23.2466265 81.7139563,22.7026924 81.9910548,21.861134 Z" id="variable" fill="#000000" fill-rule="nonzero"></path>
        </g>
    </g>
</svg>